<svg id="illustration_online_order_car" data-name="illustration online order car" xmlns="http://www.w3.org/2000/svg" viewBox="0 0 428.95 292.6"><defs><style>.cls-1{fill:#0c005b;}</style></defs><path class="cls-1" d="M302.55,113.45c0-3.26.06-6.38,0-9.49-.15-8-6.51-15.09-14.09-15.91A13.94,13.94,0,0,0,287,88c-21,0-42-.09-63,0-.36,0-.72,0-1.07,0-5.49.39-9.49,3.53-12.3,8.48-2.73,4.78-1.66,9.94-1.83,15-.15,4.38-.46,4.7-5.47,3.7v-9.55c0-9.35-5.82-16.38-14-17.6a17.58,17.58,0,0,0-3.79-.14c-1,.06-2,.11-3,.14-2.34.08-4.68.07-7,0H164.84a9.53,9.53,0,0,1-2.47,0h-24c-1.85,0-3.7,0-5.56,0q-3.43,0-6.86-.16a14.17,14.17,0,0,0-2.76.16c-6.6,1-12.76,6.59-13.39,13.41-.35,3.8-.35,7.63-.44,11.44,0,1.46,0,2.72-2,2.88s-3,1.63-3,3.67c0,3.33,0,6.67,0,10,0,1.95,1,3.34,2.83,3.46s2.22,1.19,2.23,2.68c0,3.53,0,7.06,0,10.6.12,9.05,6.63,16.33,15.32,16.3,21-.1,42,0,63,0,5.64,0,10.18-2.4,12.63-7.38a33.43,33.43,0,0,0,2.79-10.58c.46-3.72.1-7.55.1-11.45a13.35,13.35,0,0,0,2,0c3-.55,3.7.85,3.53,3.59-.21,3.32.07,6.68-.06,10-.29,7.54,6.3,16.08,16.3,15.92,20.6-.32,41.22,0,61.83-.22,7,.21,14.84-6.42,15.45-8.11.48-1.31.19-11.95.19-11.95,0-3.62,0-7.22,0-10.8,6.09-1,6.29-1.21,6.29-7.22v-4.42C308.8,114.56,308.3,114,302.55,113.45Zm-113.72,32.4c0,1.74-.86,2.36-2.58,2.35q-30,0-60,0c-1.85,0-2.51-.87-2.54-2.41-.08-3.63-.14-7.27,0-10.89,0-.65,1.16-1.67,1.89-1.79a42.32,42.32,0,0,1,5.29-.1c2.54-.05,4-1.15,4-3.92-.07-3.14-.1-6.28,0-9.42.11-2.81-1.35-3.91-3.89-4-1.57-.06-3.15-.1-4.71,0-1.82.11-2.76-.47-2.69-2.47.11-2.54,0-5.1,0-7.65,0-2.27.77-3.73,3.5-3.44h22.62a.75.75,0,0,1,0-.16l1.77.16c2.42.21,10,.06,11.52,0,7.65,0,15.3,0,23,0,2.06,0,2.88,1,2.88,2.82Q188.85,125.4,188.83,145.85Zm99.53.2c0,2.23-1.82,2.13-3.45,2.13q-19.71,0-39.42,0c-6.48,0-13-.07-19.42,0-2.24,0-3.11-.61-3.09-3q.14-19.86,0-39.72c0-2.55.88-3.42,3.44-3.41q29.13.12,58.25,0c2.7,0,3.74,1.11,3.7,3.65s0,4.9,0,7.91c-2.24,0-4.08,0-5.92,0-3.22.07-4.48,1.31-4.52,4.42,0,2.94,0,5.88,0,8.82,0,2.68,1.41,4,3.92,4.15,2,.13,4.07,0,6.56,0C288.39,136.33,288.46,141.19,288.36,146.05Z"/><path class="cls-1" d="M280.48,75.8H136.17c-6.65-16.1-13.36-32.38-20.39-49.4L173.36,43c-4.13-7.73-7.87-14.73-11.87-22.2l59.56,17.34c1.12.94,2.84,1,4.35,1.27a7,7,0,0,1,1.45.39l.25.1a85.74,85.74,0,0,0,10.76,3.13l1,.27c-1.71-6.25-3.42-12.45-5.15-18.75l.09,0,28.56,15.59.5.27a34.4,34.4,0,0,1,5.49,3h0a7.45,7.45,0,0,1,.6.52c1.55,1.49,2.46,3.84,3.18,6C275,58.21,277.6,66.59,280.3,75A5.56,5.56,0,0,1,280.48,75.8Z"/><path class="cls-1" d="M290.45,64.84c0-3.14-.06-6.28,0-9.42a6.32,6.32,0,0,1,6.73-6.2c3.86.29,6,2.74,5.52,6.72-.84,6.61-1.87,13.19-2.92,19.76-.46,2.86-2.56,4.52-5,4.27a5,5,0,0,1-4.3-5.12C290.38,71.52,290.45,68.18,290.45,64.84Z"/><path class="cls-1" d="M317.8,64.16c3.37.42,5.66,1.69,6.8,4.08.66,1.39.78,3.82,0,5-3.33,4.88-7.07,9.48-10.7,14.14-1.88,2.4-3.86,2.84-6.08,1.49-2.51-1.51-3.19-3.41-1.84-6.19,2.52-5.15,5.08-10.3,7.91-15.28C314.66,66,316.47,65.22,317.8,64.16Z"/><path class="cls-1" d="M169,118.53l-4.63,6.79,9,3.2c.46,4.65-3.86,10.26-9.63,11.42-5.19,1.05-11-1.73-13.23-6.4-2.59-5.53-1.4-11.61,3-15.1A12.17,12.17,0,0,1,169,118.53Z"/><path class="cls-1" d="M263.39,118.53l-4.63,6.79,9,3.2c.46,4.65-3.86,10.26-9.63,11.42-5.19,1.05-11-1.73-13.23-6.4-2.6-5.53-1.4-11.61,3-15.1A12.17,12.17,0,0,1,263.39,118.53Z"/><path class="cls-1" d="M125.93,87.89q3.42.14,6.86.16h-9.62A14.17,14.17,0,0,1,125.93,87.89Z"/><path class="cls-1" d="M189.3,88.05h-6.83c1,0,2-.08,3-.14A17.58,17.58,0,0,1,189.3,88.05Z"/><path class="cls-1" d="M288.45,88.05H222.92c.35,0,.71,0,1.07,0,21-.13,42-.08,63,0A13.94,13.94,0,0,1,288.45,88.05Z"/><path class="cls-1" d="M268.33,43.41l-5.49-3A34.4,34.4,0,0,1,268.33,43.41Z"/><path class="cls-1" d="M227.1,39.94l-1.7-.49a7,7,0,0,1,1.45.39Z"/><path class="cls-1" d="M55.28,216.65A34.1,34.1,0,0,1,77,224.53l-6.88,8.73a22.62,22.62,0,0,0-14.83-6A16.88,16.88,0,1,0,55.35,261a24.61,24.61,0,0,0,10.59-2.94V243.85H76.52v20.78a40,40,0,0,1-21.94,7c-16.38,0-28.82-11.9-28.82-27.58S38.43,216.65,55.28,216.65Z"/><path class="cls-1" d="M104.81,229.17c14.6,0,21.4,9.65,20.39,24.8H95.38a10.62,10.62,0,0,0,10.74,8.34,14.74,14.74,0,0,0,10.51-4.4l6.26,6.33c-4.18,4.64-10.28,7.34-17.77,7.34-13.29,0-21.72-8.49-21.72-21.09C83.4,237.67,92.14,229.17,104.81,229.17Zm9.27,17.77c-.16-5.49-3.71-9-9.2-9-5.25,0-8.8,3.55-9.73,9Z"/><path class="cls-1" d="M150.94,229.17c14.6,0,21.4,9.65,20.4,24.8H141.51a10.62,10.62,0,0,0,10.74,8.34,14.74,14.74,0,0,0,10.51-4.4l6.26,6.33c-4.18,4.64-10.28,7.34-17.77,7.34-13.29,0-21.71-8.49-21.71-21.09C129.54,237.67,138.27,229.17,150.94,229.17Zm9.27,17.77c-.16-5.49-3.71-9-9.2-9-5.25,0-8.8,3.55-9.73,9Z"/><path class="cls-1" d="M179.61,213.79H191.5v31.53l15.23-15.69h13.52l-15.22,16,15.91,25.5H206.88l-10-16.92-5.34,5.64v11.28H179.61Z"/><path class="cls-1" d="M222.18,217h41.49v6H246v48.13H239.8V223H222.18Z"/><path class="cls-1" d="M266.54,230.4h6v23.49c0,7.19,4.25,11.44,11.28,11.44,8.43-.16,13.37-6.26,13.37-14.92v-20h6v40.72h-6v-9.19c-2.7,6.33-8.11,9.35-15.45,9.42-9.51,0-15.22-6-15.22-15.84Z"/><path class="cls-1" d="M313.52,231.72h5.87V221h5.95v10.74l12.9-.08v4.94h-12.9v22.18c0,4.94,1.93,6.8,5.41,6.8a12.35,12.35,0,0,0,6.49-2.09l1.7,4.87a17.07,17.07,0,0,1-9.2,3.09c-5.95,0-10.35-3.55-10.35-11.59V236.58h-5.87Z"/><path class="cls-1" d="M364,230.25c12,0,20.62,8.34,20.62,20.47S376,271.35,364,271.35s-20.63-8.42-20.63-20.63S351.92,230.25,364,230.25Zm0,35.69c8.49,0,14.6-6.18,14.6-15.14s-6.11-15.07-14.6-15.07-14.61,6.19-14.61,15.07S355.48,265.94,364,265.94Z"/><path class="cls-1" d="M395.19,230.4h6v9c2.71-5.95,7.73-9.19,14.6-9.27v6.11c-8.57-.16-13.9,5.17-14.6,13.21v21.63h-6Z"/></svg>